<?xml version="1.0" encoding="UTF-8"?>
<svg width="1024px" height="1024px" viewBox="0 0 1024 1024" version="1.1" xmlns="http://www.w3.org/2000/svg" xmlns:xlink="http://www.w3.org/1999/xlink">
    <title>点赞备份 2@2x</title>
    <g id="点赞备份-2" stroke="none" stroke-width="1" fill="none" fill-rule="evenodd">
        <g id="规范" opacity="0" transform="translate(64.000000, 64.000000)" stroke="#CCCCCC">
            <rect id="矩形" x="64.5" y="64.5" width="767" height="767"></rect>
            <rect id="矩形" x="0.5" y="128.5" width="895" height="639"></rect>
            <rect id="矩形" transform="translate(448.000000, 448.000000) rotate(-90.000000) translate(-448.000000, -448.000000) " x="0.5" y="128.5" width="895" height="639"></rect>
            <circle id="椭圆形" cx="448" cy="448" r="415.5"></circle>
        </g>
        <g id="编组" transform="translate(64.000000, 94.000000)" fill="#313233">
            <path d="M320,193.314003 L320,833.314003 L124,833.314003 C55.516691,833.314003 0,777.797312 0,709.314003 L0,317.314003 C0,248.830694 55.516691,193.314003 124,193.314003 L320,193.314003 Z M256,769.314 L256,257.314 L124,257.314 C91.1942859,257.314 64.5378857,283.642346 64.0080383,316.321793 L64,317.314 L64,709.314 C64,742.119717 90.328343,768.776117 123.00779,769.305965 L124,769.314 L256,769.314 Z" id="矩形"></path>
            <path d="M530.808106,5.09377725 L538.535512,7.16432961 C604.024024,24.7110736 643.153938,91.5272473 626.731647,157.046898 L626.215952,159.032479 L617.03,193.314003 L771.502642,193.314003 C839.985951,193.314003 895.502642,248.830694 895.502642,317.314003 C895.502642,330.51686 893.394072,343.634996 889.256595,356.172807 L759.896595,748.172807 C743.127622,798.987876 695.653105,833.314003 642.142642,833.314003 L256,833.314003 L256,193.314003 L352,193.314003 L378.939538,92.7749635 C396.664618,26.6253311 464.658334,-12.6307822 530.808106,5.09377725 Z M514.243877,66.9130812 C482.555855,58.422406 449.993321,76.9544998 441.023334,108.383171 L440.758763,109.339488 L401.108841,257.314003 L320,257.314 L320,769.314003 L642.142642,769.314003 C667.77588,769.314003 690.546619,753.035114 698.872495,728.851886 L699.120361,728.11665 L828.480361,336.11665 C830.482366,330.049967 831.502642,323.702482 831.502642,317.314003 C831.502642,284.508289 805.174299,257.851889 772.494852,257.322041 L771.502642,257.314003 L533.622999,257.314003 L564.426,142.354 L564.646753,141.506995 C572.512743,110.124241 554.039066,78.1270706 522.927424,69.2481398 L521.971093,68.9835825 L514.243877,66.9130812 Z" id="路径"></path>
        </g>
    </g>
</svg>