<?xml version="1.0" encoding="UTF-8"?>
<svg width="1024px" height="1024px" viewBox="0 0 1024 1024" version="1.1" xmlns="http://www.w3.org/2000/svg" xmlns:xlink="http://www.w3.org/1999/xlink">
    <title>tab_icon_聊天_no@2x</title>
    <g id="tab_icon_聊天_no" stroke="none" stroke-width="1" fill="none" fill-rule="evenodd">
        <g id="规范" opacity="0" transform="translate(64.000000, 64.000000)" stroke="#CCCCCC">
            <rect id="矩形" x="64.5" y="64.5" width="767" height="767"></rect>
            <rect id="矩形" x="0.5" y="128.5" width="895" height="639"></rect>
            <rect id="矩形" transform="translate(448.000000, 448.000000) rotate(-90.000000) translate(-448.000000, -448.000000) " x="0.5" y="128.5" width="895" height="639"></rect>
            <circle id="椭圆形" cx="448" cy="448" r="415.5"></circle>
        </g>
        <g id="编组" transform="translate(54.000000, 73.000000)" fill="#313233">
            <path d="M631.47184,146.316646 C706.812051,146.316646 767.887359,207.391954 767.887359,282.732165 L767.887359,634.050014 C767.887359,706.084533 711.879217,765.704181 639.985108,770.199631 L531.742407,776.967914 C512.777767,778.15375 495.09758,786.9546 482.718805,801.370901 L437.361227,854.194265 C412.02915,883.695962 367.577593,887.076106 338.075896,861.744029 C335.371848,859.422157 332.848005,856.898314 330.526132,854.194265 L285.168554,801.370901 C272.78978,786.9546 255.109592,778.15375 236.144952,776.967914 L127.902251,770.199631 C56.008142,765.704181 0,706.084533 0,634.050014 L0,282.732165 C0,207.391954 61.0753084,146.316646 136.415519,146.316646 L631.47184,146.316646 Z M631.47184,216.724656 L136.415519,216.724656 C100.325128,216.724656 70.9997516,245.689128 70.4168531,281.64061 L70.40801,282.732165 L70.40801,634.050014 C70.40801,668.556872 96.9694197,697.176078 131.254897,699.855623 L132.296196,699.928861 L240.538897,706.697144 C278.088885,709.045099 313.121088,726.320005 337.840202,754.641513 L338.586101,755.503118 L383.94368,808.32466 L429.301258,755.503118 C453.811231,726.958842 488.713035,709.421973 526.211363,706.772859 L527.348462,706.697144 L635.591163,699.928861 C670.030761,697.775395 696.936566,669.479724 697.471238,635.093854 L697.479349,634.050014 L697.479349,282.732165 C697.479349,246.641774 668.514877,217.316397 632.563395,216.733499 L631.47184,216.724656 Z" id="路径"></path>
            <path d="M778.888611,0 C854.228822,0 915.30413,61.0753084 915.30413,136.415519 L915.30413,487.733368 C915.30413,559.767887 859.295988,619.387535 787.401879,623.882985 L739.283771,626.891 L739.283771,556.346 L783.007934,553.612215 C817.447532,551.458749 844.353337,523.163078 844.888009,488.777208 L844.89612,487.733368 L844.89612,136.415519 C844.89612,100.325128 815.931648,70.9997516 779.980166,70.4168531 L778.888611,70.40801 L283.83229,70.40801 C247.741899,70.40801 218.416523,99.3724825 217.833624,135.323965 L217.824781,136.415519 L217.824771,184.821 L147.416771,184.821 L147.416771,136.415519 C147.416771,61.0753084 208.492079,0 283.83229,0 L778.888611,0 Z" id="形状结合"></path>
            <path d="M531.997906,345.989362 C551.440541,345.989362 567.201911,361.750732 567.201911,381.193367 C567.201911,400.441575 551.754193,416.081776 532.580069,416.392655 L531.997906,416.397372 L235.889453,416.397372 C216.446818,416.397372 200.685448,400.636002 200.685448,381.193367 C200.685448,361.945158 216.133167,346.304957 235.30729,345.994078 L235.889453,345.989362 L531.997906,345.989362 Z" id="直线"></path>
            <path d="M382.382322,497.806633 C401.824957,497.806633 417.586327,513.568003 417.586327,533.010638 C417.586327,552.258847 402.138608,567.899048 382.964484,568.209927 L382.382322,568.214643 L234.787891,568.214643 C215.345256,568.214643 199.583886,552.453273 199.583886,533.010638 C199.583886,513.76243 215.031605,498.122229 234.205728,497.81135 L234.787891,497.806633 L382.382322,497.806633 Z" id="直线"></path>
        </g>
    </g>
</svg>